<?xml version="1.0" standalone="no"?>
<!DOCTYPE svg PUBLIC "-//W3C//DTD SVG 1.1//EN" "http://www.w3.org/Graphics/SVG/1.1/DTD/svg11.dtd" >
<svg xmlns="http://www.w3.org/2000/svg">
<metadata></metadata>
<defs>
<font id="kiplingextrabold" horiz-adv-x="1372" >
<font-face units-per-em="2048" ascent="1536" descent="-512" />
<missing-glyph horiz-adv-x="492" />
<glyph unicode="&#xfb01;" horiz-adv-x="1239" d="M16 705v227h115v84q0 242 74 343t246 101t309 -100l-105 -225q-75 39 -123 39q-94 0 -94 -152v-90h183v-227h-183v-705h-307v705h-115zM809 1282q0 72 45 125t131 53t131 -53t45 -125t-45 -124t-131 -52t-131 52t-45 124zM825 0v967h320v-967h-320z" />
<glyph unicode="&#xfb02;" horiz-adv-x="1210" d="M16 705v227h115v84q0 242 74 343t246 101t309 -100l-105 -225q-75 39 -123 39q-94 0 -94 -152v-90h183v-227h-183v-705h-307v705h-115zM813 0v1434h315v-1434h-315z" />
<glyph horiz-adv-x="2048" />
<glyph horiz-adv-x="2048" />
<glyph unicode="&#xd;" horiz-adv-x="2048" />
<glyph unicode=" "  horiz-adv-x="492" />
<glyph unicode="&#x09;" horiz-adv-x="492" />
<glyph unicode="&#xa0;" horiz-adv-x="492" />
<glyph unicode="!" horiz-adv-x="573" d="M111 150q0 71 45 124q45 54 131 54t131 -54q45 -52 45 -124t-45 -125q-45 -52 -131 -52t-131 52t-45 125zM135 512v922h307v-922h-307z" />
<glyph unicode="&#x22;" horiz-adv-x="778" d="M41 840v594h299v-594h-299zM438 840v594h299v-594h-299z" />
<glyph unicode="#" horiz-adv-x="1182" d="M70 414v237h184l35 164h-146v242h195l33 153h237l-33 -153h164l33 153h238l-33 -153h135v-242h-184l-35 -164h145v-237h-194l-25 -127h-237l24 127h-164l-24 -127h-238l25 127h-135zM492 651h163l35 164h-164z" />
<glyph unicode="$" horiz-adv-x="1081" d="M61 371l238 108q62 -121 172 -151v303q-56 17 -97 32t-96.5 46.5t-91 68.5t-61 96.5t-25.5 131.5q0 138 92 235q93 96 279 117v76h178v-78q136 -16 219 -80q81 -60 133 -160l-239 -110q-22 43 -47.5 66.5t-65.5 35.5v-268q57 -16 103 -33t99.5 -49t89.5 -70.5t60.5 -97 t24.5 -129.5q0 -149 -98.5 -255.5t-278.5 -129.5v-76h-178v74q-126 14 -229 81t-181 216zM367 1001q0 -72 104 -110v221q-104 -26 -104 -111zM649 326q52 15 81.5 49t29.5 76q0 80 -111 124v-249z" />
<glyph unicode="%" horiz-adv-x="1520" d="M49 793q0 122 74 199t221 77t221 -77t74 -199q0 -118 -74 -197q-73 -78 -221 -78t-221 78q-74 79 -74 197zM254 793q0 -41 23 -66t67 -25t67 25t23 66q0 42 -23 67t-67 25t-67 -25t-23 -67zM283 0l665 1069h299l-669 -1069h-295zM881 262q0 124 73 200q74 77 222 77 q146 0 220 -77t74 -200q0 -118 -74 -197q-74 -77 -220 -77q-148 0 -222 77q-73 77 -73 197zM1085 262q0 -41 23.5 -65.5t67.5 -24.5t67 25t23 65q0 42 -23 67t-67 25q-45 0 -68 -24.5t-23 -67.5z" />
<glyph unicode="&#x26;" horiz-adv-x="1188" d="M-4 367q0 128 65 243.5t189 208.5l59 45q-133 160 -133 310q0 124 96.5 214.5t257.5 90.5q156 0 261.5 -86.5t105.5 -239.5q0 -145 -106 -258l-56 -55q-17 -18 -51 -43l184 -226q8 8 18 25.5t17 32.5t16 35t11 24l213 -149q-34 -96 -94 -189l172 -211l-201 -166l-139 174 q-81 -87 -197 -130q-118 -44 -240 -44q-89 0 -168.5 25t-142.5 73t-100 124.5t-37 171.5zM279 383q0 -67 60 -110.5t136 -43.5q67 0 137.5 35.5t108.5 87.5l-234 299q-29 -21 -36 -28q-172 -135 -172 -240zM451 1149q0 -49 71 -123l39 29q66 47 66 98q0 34 -23 55t-65 21 q-52 0 -70 -26q-18 -25 -18 -54z" />
<glyph unicode="'" horiz-adv-x="381" d="M41 840v594h299v-594h-299z" />
<glyph unicode="(" horiz-adv-x="702" d="M78 625q0 526 342 884l233 -194q-111 -116 -182.5 -288.5t-71.5 -401.5q0 -421 254 -691l-233 -194q-342 361 -342 885z" />
<glyph unicode=")" horiz-adv-x="702" d="M49 -66q254 270 254 691q0 229 -71.5 401.5t-182.5 288.5l234 194q342 -362 342 -884q0 -517 -342 -885z" />
<glyph unicode="*" horiz-adv-x="694" d="M29 1145l133 78l-133 77l94 160l137 -80l-6 156h186l-6 -160l137 84l95 -160l-136 -77l136 -78l-93 -160l-139 80l6 -158h-186l6 158l-139 -80z" />
<glyph unicode="+" horiz-adv-x="1040" d="M41 389v279h340v340h278v-340h340v-279h-340v-340h-278v340h-340z" />
<glyph unicode="," horiz-adv-x="483" d="M61 145q0 82 47 132.5t136 50.5q110 0 163.5 -78t53.5 -207q0 -157 -80 -270t-250 -154l-55 113q89 53 130.5 108.5t41.5 132.5q-187 10 -187 172z" />
<glyph unicode="-" horiz-adv-x="905" d="M70 389v279h766v-279h-766z" />
<glyph unicode="." horiz-adv-x="475" d="M61 150q0 71 45 124q46 54 132 54t131 -54q45 -52 45 -124t-45 -125q-45 -52 -131 -52t-132 52q-45 53 -45 125z" />
<glyph unicode="/" horiz-adv-x="823" d="M-12 -250l549 1786h299l-549 -1786h-299z" />
<glyph unicode="0" horiz-adv-x="1286" d="M49 717q0 169 45 309t124 235t188 147t237 52t237 -52t188 -147t124 -235t45 -309q0 -224 -77.5 -394.5t-211.5 -260t-303 -89.5q-128 0 -237.5 52.5t-189 147.5t-124.5 235t-45 309zM356 717q0 -224 73 -348q74 -125 214 -125q141 0 215 125t74 348t-74 348t-215 125 q-140 0 -214 -125q-73 -124 -73 -348z" />
<glyph unicode="1" horiz-adv-x="696" d="M41 918v296l334 220h235v-1434h-307v1069z" />
<glyph unicode="2" horiz-adv-x="1145" d="M45 0l592 848q72 100 72 188q0 133 -142 133q-41 0 -72.5 -11t-55 -35t-35 -41t-30.5 -51q-3 -6 -5 -9l-277 129q63 158 179 233.5t302 75.5q96 0 173 -20t128.5 -55t85.5 -83t49 -102t15 -115q0 -86 -34 -173t-113 -195l-328 -438h547v-279h-1051z" />
<glyph unicode="3" horiz-adv-x="1092" d="M31 285l276 129q39 -67 89 -108q49 -40 145 -40q88 0 130 37.5t42 122.5q0 84 -52 133t-182 49h-219v244h209q115 0 157 45t42 117q0 155 -152 155q-73 0 -114 -38q-39 -36 -74 -109l-277 129q66 164 176 236q110 73 293 73q123 0 214.5 -31t144.5 -87t78.5 -126.5 t25.5 -156.5q0 -99 -40.5 -176t-143.5 -129q229 -99 229 -357q0 -194 -129 -308t-377 -114q-186 0 -306.5 73.5t-184.5 236.5z" />
<glyph unicode="4" horiz-adv-x="1194" d="M57 236v210l662 988h225v-920h178v-278h-178v-236h-307v236h-580zM389 514h248v385z" />
<glyph unicode="5" horiz-adv-x="1085" d="M51 285l277 129q31 -62 82 -104q53 -44 137 -44q87 0 136.5 53t49.5 150q0 46 -14 79t-50.5 61.5t-108.5 42.5t-181 14q-33 0 -211 -11l2 68l27 711h766v-279h-498l-8 -242q22 2 30 2h19q289 0 416 -110t127 -332q0 -109 -30 -198t-90 -157t-159.5 -105.5t-230.5 -37.5 q-184 0 -303.5 73.5t-184.5 236.5z" />
<glyph unicode="6" horiz-adv-x="1174" d="M74 516q0 247 148.5 499t367.5 419h420q-323 -231 -492 -498q115 22 170 22q201 0 315.5 -132t114.5 -332q0 -229 -146.5 -375t-377.5 -146q-233 0 -376.5 152t-143.5 391zM369 502q0 -109 66 -171.5t161 -62.5q98 0 161 63q64 64 64 163q0 100 -63 164q-62 65 -164 65 q-43 0 -81.5 -13t-71.5 -38.5t-52.5 -69t-19.5 -100.5z" />
<glyph unicode="7" horiz-adv-x="977" d="M63 0l467 1155h-430v279h889l-117 -283l-471 -1151h-338z" />
<glyph unicode="8" horiz-adv-x="1108" d="M49 428q0 115 52.5 209t146.5 158q-121 112 -121 276q0 168 122.5 278.5t305.5 110.5t305.5 -110t122.5 -279q0 -164 -121 -276q94 -64 146.5 -158t52.5 -209q0 -128 -67 -232.5t-183 -163.5t-256 -59t-256 59t-183 163.5t-67 232.5zM352 465q0 -86 55 -141 q55 -54 148 -54q91 0 147 54q56 56 56 141q0 86 -56 140t-147 54q-93 0 -148 -54t-55 -140zM416 1044q0 -60 38.5 -98.5t100.5 -38.5t100.5 38.5t38.5 98.5t-38 97t-101 37t-101 -37t-38 -97z" />
<glyph unicode="9" horiz-adv-x="1174" d="M70 940q0 228 146 374t378 146q233 0 376.5 -152t143.5 -390q0 -126 -41.5 -259t-113 -251t-164 -222.5t-197.5 -185.5h-420q328 240 490 496q-97 -23 -170 -23q-133 0 -231.5 64t-147.5 168.5t-49 234.5zM367 938q0 -98 63 -163q64 -64 166 -64q94 0 158.5 55.5 t64.5 165.5q0 109 -66 171t-161 62q-98 0 -162 -63q-63 -62 -63 -164z" />
<glyph unicode=":" horiz-adv-x="573" d="M111 250q0 72 45 125t131 53t131 -53t45 -125t-45 -124t-131 -52t-131 52t-45 124zM111 809q0 73 45 125q45 53 131 53t131 -53t45 -125q0 -71 -45 -124q-45 -52 -131 -52t-131 52q-45 53 -45 124z" />
<glyph unicode=";" horiz-adv-x="573" d="M111 145q0 82 46.5 132.5t135.5 50.5q110 0 163.5 -78t53.5 -207q0 -157 -80 -270t-250 -154l-55 113q89 53 130.5 108.5t41.5 132.5q-186 10 -186 172zM111 809q0 73 45 125q45 53 131 53t131 -53t45 -125q0 -71 -45 -124q-45 -52 -131 -52t-131 52q-45 53 -45 124z" />
<glyph unicode="&#x3c;" horiz-adv-x="1190" d="M102 571l828 465l137 -243l-393 -222l397 -225l-137 -244z" />
<glyph unicode="=" horiz-adv-x="967" d="M111 227v279h745v-279h-745zM111 637v278h745v-278h-745z" />
<glyph unicode="&#x3e;" horiz-adv-x="1190" d="M119 346l397 225l-393 222l137 243l827 -465l-831 -469z" />
<glyph unicode="?" horiz-adv-x="1065" d="M53 1153q52 107 109.5 171t149.5 100t225 36q131 0 236.5 -49t170 -148.5t64.5 -234.5q0 -146 -90 -250q-88 -98 -252 -143v-143h-308v311q170 38 250 98q70 55 70 133q0 54 -37 94q-38 41 -102 41q-66 0 -113 -33.5t-92 -113.5zM334 150q0 71 45 124q45 54 131 54 t131 -54q45 -52 45 -124t-45 -125q-45 -52 -131 -52t-131 52q-45 53 -45 125z" />
<glyph unicode="@" horiz-adv-x="1739" d="M49 530q0 162 60 300.5t169.5 238.5t274 156.5t365.5 56.5q359 0 565.5 -176t206.5 -475q0 -224 -106.5 -347.5t-266.5 -123.5q-86 0 -147.5 35.5t-84.5 99.5q-65 -143 -258 -143q-171 0 -270.5 105t-99.5 271q0 168 99 274.5t265 106.5q152 0 242 -100v72h221v-332 q0 -107 15 -146q17 -38 42 -38q33 0 61 52t28 177q0 234 -122.5 348.5t-385.5 114.5q-156 0 -275 -39t-192 -110t-109.5 -166t-36.5 -212q0 -235 137 -382.5t363 -147.5q167 0 287 90l182 -153q-183 -162 -461 -162q-163 0 -305 56.5t-244 155.5t-160.5 240t-58.5 303z M678 532q0 -86 56 -136q58 -50 145 -50q91 0 138 48q46 47 46 104v67q0 55 -48 105q-48 49 -141 49q-88 0 -142 -51q-54 -50 -54 -136z" />
<glyph unicode="A" d="M4 0l676 1466l688 -1466h-328l-90 201h-532l-86 -201h-328zM512 418h342l-172 370z" />
<glyph unicode="B" horiz-adv-x="1126" d="M86 0v1434h510q217 0 326 -109q110 -108 110 -295q0 -88 -30 -166q-28 -78 -109 -119q64 -23 106.5 -77.5t60 -119t17.5 -138.5q0 -188 -116 -299t-330 -111h-545zM393 283h168q100 0 145.5 37t45.5 116q0 74 -41 121t-140 47h-178v-321zM393 848h174q146 0 146 162 q0 84 -42 114q-41 31 -145 31h-133v-307z" />
<glyph unicode="C" horiz-adv-x="1481" d="M43 717q1 157 57 294.5t154.5 236.5t239.5 155.5t305 56.5q140 0 262 -42t223.5 -134t159.5 -227l-283 -117q-49 109 -144 167t-229 58q-197 0 -310 -124.5t-113 -323.5q0 -201 113 -325t310 -124q134 0 230 58.5t145 169.5l283 -136q-88 -185 -263.5 -286t-389.5 -101 q-215 0 -386.5 97.5t-267 267t-96.5 379.5z" />
<glyph unicode="D" horiz-adv-x="1370" d="M86 0v1434h477q372 0 568 -179q196 -178 196 -514q0 -177 -56 -318t-157.5 -233t-241.5 -141t-309 -49h-477zM393 279h170q200 0 324.5 124t124.5 326q0 189 -116 307.5t-333 118.5h-170v-876z" />
<glyph unicode="E" horiz-adv-x="1087" d="M86 0v1434h918v-279h-611v-293h559v-278h-559v-305h641v-279h-948z" />
<glyph unicode="F" horiz-adv-x="1053" d="M86 0v1434h918v-279h-611v-293h600v-278h-600v-584h-307z" />
<glyph unicode="G" horiz-adv-x="1546" d="M43 713q0 158 57 297t155.5 237.5t236.5 155.5t294 57q223 0 398.5 -108t267.5 -293l-291 -117q-50 110 -146 172t-229 62q-193 0 -307 -129.5t-114 -329.5q0 -202 113.5 -330.5t309.5 -128.5q131 0 238 61.5t139 161.5q5 11 6 21l5 20h-420v277h739q2 -30 2 -43v-25 q0 -190 -50.5 -336.5t-143 -237.5t-216 -137.5t-274.5 -46.5q-170 0 -314.5 57t-244 155.5t-155.5 235t-56 292.5z" />
<glyph unicode="H" horiz-adv-x="1386" d="M86 0v1434h307v-572h600v572h307v-1434h-307v584h-600v-584h-307z" />
<glyph unicode="I" horiz-adv-x="504" d="M98 0v1434h308v-1434h-308z" />
<glyph unicode="J" horiz-adv-x="492" d="M-80 -74q50 8 103 27q45 17 58 38.5t13 65.5v1377h307v-1375q0 -116 -27 -196q-25 -79 -106 -131q-101 -64 -297 -86z" />
<glyph unicode="K" horiz-adv-x="1204" d="M86 0v1434h307v-621l514 621h367l-500 -607l481 -827h-381l-321 559l-160 -197v-362h-307z" />
<glyph unicode="L" horiz-adv-x="885" d="M86 0v1434h307v-1155h459v-279h-766z" />
<glyph unicode="M" horiz-adv-x="1542" d="M51 0l82 1466l637 -620l639 620l82 -1466h-307l-43 774l-391 -346l-353 332l-39 -760h-307z" />
<glyph unicode="N" horiz-adv-x="1386" d="M86 0v1466l907 -792v760h307v-1467l-907 776v-743h-307z" />
<glyph unicode="O" horiz-adv-x="1573" d="M43 717q0 157 57 295t155.5 236t236.5 155t294 57q157 0 295 -57t236.5 -155t155.5 -236t57 -295q0 -156 -57 -294t-155.5 -237t-236.5 -156t-295 -57q-156 0 -294 57t-236.5 156t-155.5 237t-57 294zM365 717q0 -201 114 -330t307 -129q192 0 307 129.5t115 329.5 t-115 329.5t-307 129.5q-193 0 -307 -129.5t-114 -329.5z" />
<glyph unicode="P" horiz-adv-x="1143" d="M86 0v1434h457q276 0 427.5 -150t151.5 -391t-151.5 -391t-427.5 -150h-150v-352h-307zM393 631h150q135 0 199 72q65 74 65 190t-65 189q-64 73 -199 73h-150v-524z" />
<glyph unicode="Q" horiz-adv-x="1587" d="M43 717q0 157 57 295t155.5 236t236.5 155t294 57q157 0 295 -57t236.5 -155t155.5 -236t57 -295q0 -245 -139 -443q50 -60 95 -74q48 -14 83 -14q14 0 29.5 1t17.5 1v-278q-8 0 -34 -1t-44 -1q-219 0 -367 166q-184 -101 -385 -101q-156 0 -294 57t-236.5 156 t-155.5 237t-57 294zM365 717q0 -202 113.5 -330.5t309.5 -128.5q118 0 203 49q-59 39 -119 39q-8 0 -32 -2l-56 -6v276q27 11 90 11q176 0 304 -90q30 81 30 182q0 200 -115 329.5t-307 129.5q-193 0 -307 -129.5t-114 -329.5z" />
<glyph unicode="R" horiz-adv-x="1186" d="M86 0v1434h457q276 0 427.5 -150t151.5 -393q0 -149 -58 -264.5t-173 -186.5l242 -440h-340l-195 352h-205v-352h-307zM393 631h150q135 0 199 72q65 74 65 190t-65 189q-64 73 -199 73h-150v-524z" />
<glyph unicode="S" horiz-adv-x="1188" d="M41 319l272 127q97 -190 308 -190q111 0 166 46q57 46 57 110q-1 34 -19 62.5t-42.5 46.5t-63 34.5t-66 25t-65.5 18.5q-13 3 -19 5q-37 10 -144 43q-85 28 -158 76q-76 51 -128 128q-53 80 -53 200q0 183 135.5 296t388.5 113q135 0 236 -36.5t163.5 -96t112.5 -149.5 l-274 -125q-37 68 -91.5 99.5t-150.5 31.5q-118 0 -165 -40q-48 -40 -48 -97q0 -70 64 -104q63 -34 186 -64q93 -26 159 -47q87 -27 165 -77q78 -51 130 -129q54 -80 54 -200q0 -93 -36 -175t-103.5 -144t-172 -98t-233.5 -36q-183 0 -325 80.5t-240 265.5z" />
<glyph unicode="T" horiz-adv-x="1110" d="M12 1155v279h1086v-279h-389v-1155h-308v1155h-389z" />
<glyph unicode="U" horiz-adv-x="1366" d="M76 571v863h307v-863q0 -65 15.5 -117.5t49 -94.5t92 -65.5t138.5 -23.5q166 0 235 80q70 79 70 221v863h307v-863q0 -289 -156.5 -443.5t-455.5 -154.5q-294 0 -448 139t-154 459z" />
<glyph unicode="V" d="M4 1434h328l350 -734l358 734h328l-688 -1467z" />
<glyph unicode="W" horiz-adv-x="1903" d="M8 1434h324l272 -676l182 442l-92 234h324l272 -676l281 676h323l-606 -1467l-340 834l-346 -834z" />
<glyph unicode="X" horiz-adv-x="1395" d="M4 1434h375l342 -486l319 486h342l-489 -732l498 -702h-379l-332 471l-309 -471h-348l485 717z" />
<glyph unicode="Y" horiz-adv-x="1290" d="M4 1434h352l285 -549l293 549h352l-493 -859v-575h-308v582z" />
<glyph unicode="Z" horiz-adv-x="1149" d="M25 0l606 1155h-514v279h1007l-614 -1155h586v-279h-1071z" />
<glyph unicode="[" horiz-adv-x="670" d="M86 -256v1792h553v-279h-246v-1234h246v-279h-553z" />
<glyph unicode="\" horiz-adv-x="829" d="M-12 1536h305l549 -1786h-305z" />
<glyph unicode="]" horiz-adv-x="670" d="M31 23h245v1234h-245v279h553v-1792h-553v279z" />
<glyph unicode="^" horiz-adv-x="893" d="M45 682l401 338l396 -334l-144 -149l-252 176l-256 -176z" />
<glyph unicode="_" horiz-adv-x="1255" d="M0 -53v278h1255v-278h-1255z" />
<glyph unicode="`" horiz-adv-x="623" d="M41 1458l164 262l377 -286l-113 -174z" />
<glyph unicode="a" horiz-adv-x="1272" d="M33 528q0 237 144 389t382 152q217 0 315 -135v123h316v-1057h-316v115q-100 -127 -309 -127q-246 0 -389 150.5t-143 389.5zM348 530q0 -117 74 -191q73 -73 190 -73q125 0 193.5 79t68.5 183q0 103 -68.5 183t-195.5 80q-118 0 -190 -74q-72 -73 -72 -187z" />
<glyph unicode="b" horiz-adv-x="1276" d="M86 0v1434h315v-500q99 135 316 135q238 0 382 -152t144 -389q0 -238 -143 -389t-389 -151q-217 0 -310 127v-115h-315zM401 528q0 -104 69 -183t194 -79q115 0 189.5 74t74.5 188q0 116 -72 190q-72 73 -190 73q-65 0 -117.5 -23.5t-83.5 -62.5t-47.5 -84.5t-16.5 -92.5 z" />
<glyph unicode="c" horiz-adv-x="1151" d="M33 528q0 118 37.5 216.5t109.5 171t184 113t254 40.5q202 0 330.5 -80t177.5 -231l-270 -109q-29 60 -83 101q-55 41 -159 41q-139 0 -203 -73q-63 -74 -63 -190t63 -189q64 -73 203 -73q104 0 159 41q54 41 83 101l270 -109q-50 -150 -178.5 -230.5t-329.5 -80.5 q-281 0 -433 149t-152 391z" />
<glyph unicode="d" horiz-adv-x="1276" d="M33 528q0 237 144 389t382 152q217 0 315 -135v500h316v-1434h-316v115q-100 -127 -309 -127q-246 0 -389 150.5t-143 389.5zM348 530q0 -117 74 -191q73 -73 190 -73q125 0 193.5 79t68.5 183q0 103 -68.5 183t-195.5 80q-118 0 -190 -74q-72 -73 -72 -187z" />
<glyph unicode="e" horiz-adv-x="1135" d="M33 528q0 249 147.5 395t390.5 146q240 0 389.5 -143t149.5 -404v-84h-756q15 -79 63 -125q49 -47 154 -47q53 0 116 20q63 21 110 89l254 -172q-164 -215 -478 -215q-245 0 -392.5 145t-147.5 395zM362 666h418q-18 60 -63 101q-44 40 -144 40q-169 0 -211 -141z" />
<glyph unicode="f" horiz-adv-x="731" d="M16 705v227h115v84q0 242 74 343t246 101t309 -100l-105 -225q-75 39 -123 39q-94 0 -94 -152v-90h183v-227h-183v-705h-307v705h-115z" />
<glyph unicode="g" horiz-adv-x="1255" d="M33 532q0 238 144 387.5t388 149.5q227 0 318 -135v125h307v-918q0 -93 -14 -168t-49.5 -144t-93.5 -115.5t-149.5 -73.5t-213.5 -27q-218 0 -412 74l72 239q44 -16 150.5 -30.5t174.5 -14.5q228 0 228 209v45q-101 -147 -326 -147q-238 0 -381 153t-143 391zM344 528 q0 -115 75 -190.5t197 -75.5q125 0 196 79.5t71 186.5q0 108 -70 189.5t-195 81.5q-121 0 -197.5 -76.5t-76.5 -194.5z" />
<glyph unicode="h" horiz-adv-x="1200" d="M86 0v1434h307v-502q100 137 309 137q211 0 326 -123.5t115 -331.5v-614h-307v543q0 138 -50 193q-49 55 -149 55q-109 0 -176.5 -58.5t-67.5 -193.5v-539h-307z" />
<glyph unicode="i" horiz-adv-x="508" d="M78 1282q0 72 45 125t131 53t131 -53t45 -125t-45 -124t-131 -52t-131 52t-45 124zM94 0v967h320v-967h-320z" />
<glyph unicode="j" horiz-adv-x="508" d="M-25 -125q11 11 38.5 37.5t33.5 33.5t22 27.5t19 35t7.5 38t4.5 53.5v869h308v-936q0 -138 -56.5 -225t-199.5 -189zM78 1282q0 72 45 125t131 53t131 -53t45 -125t-45 -124t-131 -52t-131 52t-45 124z" />
<glyph unicode="k" horiz-adv-x="1102" d="M86 0v1434h307v-734l324 357h405l-395 -404l389 -653h-373l-245 420l-105 -107v-313h-307z" />
<glyph unicode="l" horiz-adv-x="483" d="M86 0v1434h315v-1434h-315z" />
<glyph unicode="m" horiz-adv-x="1671" d="M82 0v1057h307v-94q82 106 262 106q115 0 188 -44t115 -132q31 86 108 131t193 45q188 0 273.5 -117t85.5 -338v-614h-307v543q0 148 -26 198t-99 50q-93 0 -133.5 -56t-40.5 -166v-569h-308v543q0 101 -12.5 154.5t-38 73.5t-74.5 20q-102 0 -144 -70q-42 -71 -42 -180 v-541h-307z" />
<glyph unicode="n" horiz-adv-x="1196" d="M82 0v1057h307v-125q100 137 309 137q211 0 326 -123.5t115 -331.5v-614h-308v543q0 140 -49 193q-49 55 -149 55q-109 0 -176.5 -58.5t-67.5 -193.5v-539h-307z" />
<glyph unicode="o" horiz-adv-x="1225" d="M33 528q0 242 151.5 391.5t427.5 149.5q140 0 250.5 -40.5t182.5 -113t109.5 -171t37.5 -216.5q0 -241 -151.5 -390.5t-428.5 -149.5q-276 0 -427.5 149.5t-151.5 390.5zM348 528q0 -116 64 -189t200 -73t200 73q65 74 65 189q0 116 -65 190q-64 73 -200 73t-200 -73 t-64 -190z" />
<glyph unicode="p" horiz-adv-x="1276" d="M86 -377v1434h315v-115q88 127 310 127q246 0 389 -151t143 -390q0 -237 -143.5 -388.5t-384.5 -151.5q-215 0 -314 135v-500h-315zM401 528q0 -104 69 -183t194 -79q115 0 189.5 74t74.5 188q0 116 -72 190q-72 73 -190 73q-65 0 -117.5 -23.5t-83.5 -62.5t-47.5 -84.5 t-16.5 -92.5z" />
<glyph unicode="q" horiz-adv-x="1276" d="M33 532q0 238 144 387.5t388 149.5q214 0 309 -125v113h316v-1434h-316v502q-98 -137 -315 -137q-240 0 -383 152.5t-143 391.5zM348 530q0 -117 74 -191q73 -73 190 -73q125 0 193.5 79t68.5 183q0 103 -68.5 183t-195.5 80q-118 0 -190 -74q-72 -73 -72 -187z" />
<glyph unicode="r" horiz-adv-x="717" d="M82 0v1057h307v-121q87 133 252 133q30 0 88 -10l-35 -307q-30 6 -65 6q-106 0 -173 -58.5t-67 -193.5v-506h-307z" />
<glyph unicode="s" horiz-adv-x="889" d="M25 133l137 225q129 -108 250 -108q52 0 81 20.5t29 51.5q0 25 -22.5 44t-47 28.5t-70.5 24t-65 21.5q-113 40 -180 109q-65 70 -65 190q0 153 102 241q103 89 291 89q217 0 381 -121l-103 -241q-49 30 -119 55q-70 26 -135 26q-94 0 -94 -55q0 -17 9.5 -29.5t32 -23 t41 -16.5t57 -16.5t59.5 -16.5q136 -43 197 -113t61 -186q0 -155 -104.5 -249.5t-303.5 -94.5q-114 0 -230 35q-113 36 -189 110z" />
<glyph unicode="t" horiz-adv-x="774" d="M31 829v228h112v256h308v-256h204v-228h-204v-417q0 -72 23 -104q27 -34 77 -34q49 0 123 39l102 -243q-47 -37 -139.5 -59.5t-181.5 -22.5q-72 0 -125 19t-97 65t-67 132.5t-23 211.5v413h-112z" />
<glyph unicode="u" horiz-adv-x="1196" d="M57 442v615h308v-543q0 -139 49 -194q50 -54 149 -54q52 0 93.5 13t76.5 42t54.5 83t19.5 128v525h307v-1057h-307v125q-95 -137 -307 -137q-213 0 -328 123t-115 331z" />
<glyph unicode="v" horiz-adv-x="1118" d="M-20 1057h352l227 -471l227 471h353l-580 -1086z" />
<glyph unicode="w" horiz-adv-x="1608" d="M-45 1057h334l246 -477l131 256l-119 221h303l235 -447l236 447h332l-580 -1086l-270 504l-268 -504z" />
<glyph unicode="x" horiz-adv-x="1110" d="M16 0l342 553l-319 504h377l166 -260l159 260h353l-346 -520l344 -537h-379l-174 272l-172 -272h-351z" />
<glyph unicode="y" horiz-adv-x="1073" d="M-12 1057h323l221 -516l226 516h323l-465 -1075q-67 -154 -155 -222t-268 -108l-60 297q75 23 130 53q51 28 77 100l27 76z" />
<glyph unicode="z" horiz-adv-x="1042" d="M16 0l467 786h-407v271h919l-469 -787h486v-270h-996z" />
<glyph unicode="{" horiz-adv-x="815" d="M29 516v238h34q57 0 89 29q32 30 32 116v213q0 121 34 203t105.5 129t168.5 66.5t237 19.5v-279q-123 0 -180 -30.5t-57 -108.5v-192q0 -105 -27.5 -183.5t-81.5 -101.5q54 -23 81.5 -102.5t27.5 -182.5v-194q0 -79 57 -109.5t180 -30.5v-278q-140 0 -237 19.5 t-168.5 66.5t-105.5 129t-34 203v194q0 166 -121 166h-34z" />
<glyph unicode="|" horiz-adv-x="520" d="M106 -172v1708h308v-1708h-308z" />
<glyph unicode="}" horiz-adv-x="815" d="M86 16q123 0 180.5 30.5t57.5 109.5v194q0 104 27 183t81 102q-55 23 -81.5 101t-26.5 184v192q0 82 -61 110q-61 29 -177 29v279q140 0 237 -19.5t168.5 -66.5t105.5 -129t34 -203v-213q0 -86 31 -116q32 -29 90 -29h34v-238h-34q-121 0 -121 -166v-194q0 -121 -34 -203 t-105.5 -129t-168.5 -66.5t-237 -19.5v278z" />
<glyph unicode="~" horiz-adv-x="840" d="M16 651q0 45 16 90t47.5 85t85.5 64.5t122 24.5q88 0 174 -49q13 -7 37 -22t37.5 -21t25.5 -6q28 0 42.5 24.5t14.5 65.5h205q0 -68 -18.5 -120t-45.5 -80.5t-63 -46.5t-65 -23.5t-58 -5.5q-59 0 -124 28q-23 12 -51 32t-47.5 30t-43.5 10q-34 0 -60 -21t-26 -59h-205z " />
<glyph unicode="&#xa1;" horiz-adv-x="573" d="M111 1284q0 72 45 124t131 52t131 -52t45 -124t-45 -125t-131 -53t-131 53t-45 125zM135 0v922h307v-922h-307z" />
<glyph unicode="&#xa2;" horiz-adv-x="1122" d="M33 649q0 141 52.5 254t160.5 187.5t260 91.5v121h207v-119q167 -11 268 -94t145 -209l-270 -109q-16 34 -56 77q-36 39 -87 44v-485q43 3 80.5 39.5t62.5 82.5l270 -108q-44 -134 -148 -214t-265 -89v-119h-207v119q-154 18 -262.5 93.5t-159.5 186.5t-51 250zM348 651 q0 -89 41 -158.5t117 -84.5v485q-81 -19 -119.5 -88t-38.5 -154z" />
<glyph unicode="&#xa3;" horiz-adv-x="1255" d="M4 106q141 236 383 256v25q0 9 -2 29q-11 122 -41 194h-289v238h185q-45 115 -45 223q0 87 25.5 155.5t68.5 111.5t104 71t126 39.5t140 11.5q169 0 289.5 -64t202.5 -206l-244 -117q-45 76 -101 111t-136 35q-78 0 -136 -37q-57 -38 -57 -125q0 -91 58 -209h335v-238 h-235q15 -46 23 -119q8 -74 8 -122q0 -24 -2 -44.5t-2 -23.5q5 -2 34.5 -15t51.5 -22t55 -17.5t59 -8.5q109 0 199 120l194 -163q-15 -24 -43 -55t-75 -71.5t-114.5 -67.5t-139.5 -28q-70 0 -161 28t-173 56.5t-131 28.5q-42 0 -93 -22q-52 -21 -92 -91z" />
<glyph unicode="&#xa4;" horiz-adv-x="975" d="M25 188l108 109q-63 96 -63 225q0 128 63 228l-108 110l131 131l110 -112q104 61 221 61q114 0 220 -61l112 112l131 -131l-112 -112q65 -104 65 -226q0 -116 -63 -223l110 -111l-131 -131l-110 111q-100 -62 -222 -62q-121 0 -221 62l-110 -111zM274 522 q0 -97 61.5 -164t149.5 -67q92 0 152.5 66.5t60.5 164.5t-61 166t-150 68t-151 -68t-62 -166z" />
<glyph unicode="&#xa5;" horiz-adv-x="1323" d="M20 1434h353l284 -549l293 549h353l-291 -506h184v-266h-338l-47 -80h385v-267h-387v-315h-307v315h-383v267h383l-45 80h-338v266h186z" />
<glyph unicode="&#xa6;" horiz-adv-x="520" d="M106 -172v768h308v-768h-308zM106 768v768h308v-768h-308z" />
<glyph unicode="&#xa7;" horiz-adv-x="1065" d="M31 864q0 106 58 171t159 81q0 40 6 70q25 119 126 196.5t251 77.5q156 0 274 -92l-190 -219q-39 33 -80 33q-60 0 -60 -56q0 -50 52 -84q28 -18 125 -77q61 -36 104.5 -66t86 -68t68.5 -75t42 -83.5t16 -97.5q0 -106 -56 -180q-55 -73 -141 -90q0 -31 -4 -59 q-18 -129 -115 -201q-96 -72 -241 -72q-158 0 -276 93l190 219q39 -33 76 -33q41 0 41 39q0 19 -13 41t-29 39t-47.5 40.5t-52.5 37.5t-60 39q-19 12 -28 18q-53 32 -83.5 52.5t-74 56.5t-66.5 69t-40.5 80t-17.5 100zM342 856q0 -19 16.5 -41.5t50.5 -47.5t56.5 -40 t64.5 -41q9 -5 13 -8q152 -111 174 -133q23 0 38 10.5t15 30.5q0 17 -11.5 36t-34 39t-41 34t-47.5 34t-38 27q-9 6 -41 27t-44 29.5l-36 25.5t-42 32t-36 31q-57 -10 -57 -45z" />
<glyph unicode="&#xa8;" horiz-adv-x="741" d="M25 1468q0 65 37 109q38 45 114 45q73 0 112.5 -43.5t39.5 -110.5q0 -60 -38 -106q-38 -45 -114 -45t-114 45q-37 44 -37 106zM414 1468q0 65 37 109q37 45 114 45q73 0 112.5 -43.5t39.5 -110.5q0 -60 -38 -106q-37 -45 -114 -45t-114 45q-37 44 -37 106z" />
<glyph unicode="&#xa9;" horiz-adv-x="1307" d="M37 586q0 130 49 245t132.5 195.5t198 127t240.5 46.5t239 -46.5t195.5 -127t130.5 -195t48 -245.5q0 -173 -82 -314t-222.5 -220t-308.5 -79q-169 0 -311 79t-225.5 220t-83.5 314zM180 588q0 -134 64.5 -242.5t173.5 -168.5t239 -60q198 0 333.5 133.5t135.5 337.5 q0 199 -136 334t-333 135q-130 0 -239 -61t-173.5 -169t-64.5 -239zM281 584q0 166 104.5 271.5t271.5 105.5q119 0 206 -56t134 -153l-202 -88q-47 92 -138 92q-67 0 -109 -49q-42 -48 -42 -123q0 -76 42 -124t109 -48q92 0 138 90l202 -88q-46 -98 -133 -152.5t-207 -54.5 q-168 0 -272 104.5t-104 272.5z" />
<glyph unicode="&#xaa;" horiz-adv-x="756" d="M25 1155q0 135 79.5 220t212.5 85q125 0 181 -88v82h215v-594h-215v72q-54 -80 -179 -80q-137 0 -216 85q-78 85 -78 218zM240 1159q0 -54 29.5 -86.5t80.5 -32.5q52 0 84 36q31 35 31 79q0 43 -30 82q-29 39 -85 39q-49 0 -79.5 -32t-30.5 -85z" />
<glyph unicode="&#xab;" horiz-adv-x="1157" d="M39 526l293 303h307l-295 -303l293 -301h-307zM522 526l293 303h307l-295 -303l293 -301h-307z" />
<glyph unicode="&#xac;" horiz-adv-x="1047" d="M41 389v279h954v-568h-278v289h-676z" />
<glyph unicode="&#xad;" horiz-adv-x="788" d="M61 492v73h666v-73h-666z" />
<glyph unicode="&#xae;" horiz-adv-x="1307" d="M37 586q0 130 49 245t132.5 195.5t198 127t240.5 46.5t239 -46.5t195.5 -127t130.5 -195t48 -245.5q0 -173 -82 -314t-222.5 -220t-308.5 -79q-169 0 -311 79t-225.5 220t-83.5 314zM180 588q0 -134 64.5 -242.5t173.5 -168.5t239 -60q198 0 333.5 133.5t135.5 337.5 q0 199 -136 334t-333 135q-130 0 -239 -61t-173.5 -169t-64.5 -239zM389 244v698h277q141 0 212 -74q72 -74 72 -186q0 -72 -29.5 -131t-82.5 -94l120 -213h-196l-94 172h-95v-172h-184zM559 600h92q64 0 82 24q19 25 19 54q0 80 -101 80h-92v-158z" />
<glyph unicode="&#xaf;" horiz-adv-x="635" d="M18 1343v246h598v-246h-598z" />
<glyph unicode="&#xb0;" horiz-adv-x="981" d="M123 1292q0 152 108 260q105 109 261 109q153 0 258 -109q108 -108 108 -260q0 -150 -108 -260q-105 -108 -258 -108q-156 0 -261 108q-108 110 -108 260zM223 1292q0 -110 78 -188t191 -78q110 0 188 78t78 188q0 111 -78 189q-76 80 -188 80q-115 0 -191 -80 q-78 -78 -78 -189z" />
<glyph unicode="&#xb1;" horiz-adv-x="1346" d="M45 0v117h1258v-117h-1258zM45 831v115h571v576h117v-576h570v-115h-570v-569h-117v569h-571z" />
<glyph unicode="&#xb2;" horiz-adv-x="526" d="M23 834l258 342q28 37 28 59q0 27 -28 27q-16 0 -26.5 -11t-10.5 -32h-185q8 116 71 168.5t163 52.5q109 0 159 -56t50 -133q0 -44 -60 -145q-8 -12 -30.5 -50.5t-38.5 -64.5h149v-157h-499z" />
<glyph unicode="&#xb3;" horiz-adv-x="528" d="M33 987l160 70q14 -36 28.5 -51t46.5 -15q56 0 56 43q0 23 -15.5 34t-54.5 11h-53v140h47q33 0 44 9t11 27q0 21 -13.5 32t-35.5 11q-49 0 -68 -59l-147 64q59 137 235 137q213 0 213 -172q0 -82 -53 -117q39 -31 55 -58q17 -26 17 -73q0 -92 -59.5 -143.5t-176.5 -51.5 q-90 0 -146.5 36.5t-90.5 125.5z" />
<glyph unicode="&#xb4;" horiz-adv-x="623" d="M41 1434l377 286l164 -262l-428 -198z" />
<glyph unicode="&#xb5;" horiz-adv-x="1413" d="M150 -383q0 48 12 84q35 127 41 197q16 141 16 243v955h201v-688q0 -129 22 -177q20 -54 70 -86q58 -32 106 -32q68 0 148 39q86 36 174 118v826h199v-721q0 -158 12 -201q7 -35 31 -59q20 -17 47 -17q28 0 57 29q25 31 37 119h47q-18 -163 -78 -221q-59 -62 -149 -62 q-86 0 -139 53q-56 56 -64 187q-117 -129 -233 -189q-114 -53 -189 -53q-55 0 -106 23q-54 19 -101 61q-2 -171 29 -303q22 -87 22 -129q0 -67 -30 -105q-33 -38 -76 -38q-45 0 -70 34q-36 44 -36 113z" />
<glyph unicode="&#xb6;" horiz-adv-x="1487" d="M29 911q0 222 150 372.5t370 150.5h905v-279h-176v-1436h-307v1436h-115v-1436h-307v672q-144 0 -263.5 68.5t-188 188t-68.5 263.5zM336 911q0 -103 60.5 -172t152.5 -69v485q-90 0 -151.5 -69.5t-61.5 -174.5z" />
<glyph unicode="&#xb7;" horiz-adv-x="557" d="M102 528q0 72 45 125q47 54 132 54q86 0 131 -54q45 -53 45 -125t-45 -124t-131 -52t-132 52q-45 52 -45 124z" />
<glyph unicode="&#xb8;" horiz-adv-x="662" d="M37 -240l205 332l166 -100l-60 -98q99 0 181.5 -71.5t82.5 -189.5q0 -117 -82.5 -190.5t-191.5 -73.5q-60 0 -129 29q-65 28 -103 92l179 117q31 -33 63 -33q29 0 45.5 18t16.5 48q0 26 -17 49q-16 22 -69 22q-66 0 -119 -45z" />
<glyph unicode="&#xb9;" horiz-adv-x="367" d="M23 1141v190l157 103h144v-596h-191v366z" />
<glyph unicode="&#xba;" horiz-adv-x="705" d="M25 1155q0 132 82 218q82 87 245 87q162 0 245 -87q83 -88 83 -218q0 -134 -83 -220q-82 -85 -245 -85t-245 85t-82 220zM242 1155q0 -50 29 -82.5t81 -32.5t81.5 32t29.5 83q0 52 -29 84.5t-82 32.5q-52 0 -81 -32.5t-29 -84.5z" />
<glyph unicode="&#xbb;" horiz-adv-x="1157" d="M37 829h307l293 -303l-291 -301h-307l293 301zM520 829h307l293 -303l-291 -301h-307l293 301z" />
<glyph unicode="&#xbc;" horiz-adv-x="1319" d="M41 764v190l158 103h143v-596h-190v366zM143 0l666 1069h295l-666 -1069h-295zM817 150l160 69q14 -35 28.5 -50t47.5 -15q55 0 55 43q0 47 -70 47h-53v139h47q33 0 44 9t11 28q0 43 -55 43q-11 0 -26 -7q-16 -8 -35 -53l-148 64q60 137 236 137q213 0 213 -172 q0 -80 -53 -117q40 -31 55.5 -59t15.5 -74q0 -92 -59 -143t-176 -51q-90 0 -147 36t-91 126z" />
<glyph unicode="&#xbd;" horiz-adv-x="1319" d="M45 764v190l158 103h143v-596h-190v366zM147 0l666 1069h295l-666 -1069h-295zM791 0l264 352q6 6 15 22.5t9 28.5q0 11 -9 18t-21 7t-19.5 -9t-17.5 -34h-185q15 221 234 221q110 0 159 -55q50 -56 50 -131q0 -17 -9 -47q-8 -29 -47 -94q-8 -14 -33.5 -55.5t-39.5 -65.5 h149v-158h-499z" />
<glyph unicode="&#xbe;" horiz-adv-x="1319" d="M27 610l159 70q8 -19 13 -28.5t13.5 -19.5t20.5 -14t29 -4q55 0 55 43q0 48 -69 48h-53v139h47q32 0 43.5 9t11.5 28q0 43 -55 43q-10 0 -26 -8q-15 -8 -36 -52l-147 64q59 137 235 137q213 0 213 -172q0 -82 -53 -117q41 -32 56.5 -59.5t15.5 -73.5q0 -92 -59.5 -143 t-176.5 -51q-91 0 -148 36t-89 125zM205 0l665 1069h295l-665 -1069h-295zM731 94v129l275 373h217v-352h80v-150h-80v-94h-162v94h-330zM948 244h113v159z" />
<glyph unicode="&#xbf;" horiz-adv-x="1065" d="M57 406q0 146 90 249q84 95 252 144v143h308v-311q-171 -39 -250 -99q-70 -55 -70 -133q0 -54 37 -94q38 -41 102 -41q66 0 113 34t92 114l281 -131q-39 -80 -80 -134t-97.5 -95t-131.5 -60t-175 -19q-202 0 -336.5 115.5t-134.5 317.5zM379 1284q0 72 45 124t131 52 t131 -52t45 -124t-45 -125t-131 -53t-131 53t-45 125z" />
<glyph unicode="&#xc0;" d="M4 0l676 1466l688 -1466h-328l-90 201h-532l-86 -201h-328zM368 1679l164 262l377 -286l-113 -174zM512 418h342l-172 370z" />
<glyph unicode="&#xc1;" d="M4 0l676 1466l688 -1466h-328l-90 201h-532l-86 -201h-328zM463 1655l377 286l164 -262l-428 -198zM512 418h342l-172 370z" />
<glyph unicode="&#xc2;" d="M4 0l676 1466l688 -1466h-328l-90 201h-532l-86 -201h-328zM287 1610l401 337l396 -333l-144 -150l-252 176l-256 -176zM512 418h342l-172 370z" />
<glyph unicode="&#xc3;" d="M4 0l676 1466l688 -1466h-328l-90 201h-532l-86 -201h-328zM282 1564q0 46 16 90.5t47.5 84t85.5 64.5t122 26q52 0 99 -15.5t74.5 -34t55.5 -34t47 -15.5q26 0 40.5 25t14.5 65h205q0 -68 -18.5 -120t-45.5 -80.5t-63 -46.5t-66 -23.5t-61 -5.5q-49 0 -91.5 15.5 t-66.5 34.5t-52.5 34.5t-53.5 15.5q-28 0 -57 -20q-27 -20 -27 -60h-205zM512 418h342l-172 370z" />
<glyph unicode="&#xc4;" d="M4 0l676 1466l688 -1466h-328l-90 201h-532l-86 -201h-328zM340 1689q0 65 37 109q37 45 114 45q73 0 112.5 -43.5t39.5 -110.5q0 -60 -38 -106q-37 -45 -114 -45t-114 45q-37 44 -37 106zM512 418h342l-172 370zM729 1689q0 65 37 109q38 45 114 45q73 0 112.5 -43.5 t39.5 -110.5q0 -60 -38 -106q-38 -45 -114 -45t-114 45q-37 44 -37 106z" />
<glyph unicode="&#xc5;" d="M4 0l676 1466l688 -1466h-328l-90 201h-532l-86 -201h-328zM455 1759q0 98 58 165q59 69 173 69t173 -69q58 -67 58 -165q0 -99 -60.5 -165t-170.5 -66t-170.5 66t-60.5 165zM512 418h342l-172 370zM598 1759q0 -37 23 -62.5t65 -25.5t65 25.5t23 62.5q0 39 -22.5 64.5 t-65.5 25.5t-65.5 -25.5t-22.5 -64.5z" />
<glyph unicode="&#xc6;" horiz-adv-x="1974" d="M6 0l959 1434h917v-279h-610v-293h559v-278h-559v-305h641v-279h-948v289h-433l-198 -289h-328zM723 567h242v351z" />
<glyph unicode="&#xc7;" horiz-adv-x="1481" d="M43 719q1 157 57 294t154.5 235.5t239.5 155t305 56.5q140 0 262 -42t223.5 -134t159.5 -227l-283 -117q-50 110 -146.5 173t-228.5 63q-193 0 -307 -129.5t-114 -329.5q0 -201 114 -330t307 -129q134 0 230.5 62.5t146.5 175.5l283 -136q-91 -189 -254 -283t-371 -104 l-49 -79q99 0 181.5 -71.5t82.5 -189.5q0 -117 -82.5 -190.5t-191.5 -73.5q-60 0 -129 29q-65 28 -103 92l179 117q31 -33 63 -33q29 0 45.5 18t16.5 48q0 26 -17 49q-16 22 -69 22q-66 0 -119 -45l-168 94l147 240q-246 46 -405.5 246.5t-159.5 472.5z" />
<glyph unicode="&#xc8;" horiz-adv-x="1087" d="M86 0v1434h918v-279h-611v-293h559v-278h-559v-305h641v-279h-948zM279 1679l164 262l377 -286l-113 -174z" />
<glyph unicode="&#xc9;" horiz-adv-x="1087" d="M86 0v1434h918v-279h-611v-293h559v-278h-559v-305h641v-279h-948zM317 1655l377 286l164 -262l-428 -198z" />
<glyph unicode="&#xca;" horiz-adv-x="1087" d="M86 0v1434h918v-279h-611v-293h559v-278h-559v-305h641v-279h-948zM166 1610l401 337l396 -333l-144 -150l-252 176l-256 -176z" />
<glyph unicode="&#xcb;" horiz-adv-x="1087" d="M86 0v1434h918v-279h-611v-293h559v-278h-559v-305h641v-279h-948zM224 1689q0 65 37 109q37 45 114 45q73 0 112.5 -43.5t39.5 -110.5q0 -60 -38 -106q-37 -45 -114 -45t-114 45q-37 44 -37 106zM613 1689q0 65 37 109q38 45 114 45q73 0 112.5 -43.5t39.5 -110.5 q0 -60 -38 -106q-38 -45 -114 -45t-114 45q-37 44 -37 106z" />
<glyph unicode="&#xcc;" horiz-adv-x="504" d="M-19 1679l164 262l377 -286l-113 -174zM98 0v1434h308v-1434h-308z" />
<glyph unicode="&#xcd;" horiz-adv-x="504" d="M-17 1655l377 286l164 -262l-428 -198zM98 0v1434h308v-1434h-308z" />
<glyph unicode="&#xce;" horiz-adv-x="504" d="M-147 1610l401 337l396 -333l-144 -150l-252 176l-256 -176zM97 0v1434h308v-1434h-308z" />
<glyph unicode="&#xcf;" horiz-adv-x="504" d="M-93 1689q0 63 38 109q37 45 113 45q73 0 112.5 -43.5t39.5 -110.5q0 -60 -38 -106q-38 -45 -114 -45t-113 45q-38 46 -38 106zM98 0v1434h308v-1434h-308zM296 1689q0 65 37 109q37 45 114 45q73 0 112.5 -43.5t39.5 -110.5q0 -60 -38 -106q-37 -45 -114 -45t-114 45 q-37 44 -37 106z" />
<glyph unicode="&#xd0;" horiz-adv-x="1524" d="M10 567v307h230v560h477q372 0 568 -179q196 -178 196 -514q0 -235 -98 -404t-269 -253t-397 -84h-477v567h-230zM547 279h170q200 0 324 124t124 326q0 189 -116 307.5t-332 118.5h-170v-281h375v-307h-375v-288z" />
<glyph unicode="&#xd1;" horiz-adv-x="1386" d="M86 0v1466l907 -792v760h307v-1467l-907 776v-743h-307zM252 1564q0 46 16 90.5t47.5 84t85.5 64.5t122 26q52 0 99 -15.5t74.5 -34t55.5 -34t47 -15.5q26 0 40.5 25t14.5 65h205q0 -68 -18.5 -120t-45.5 -80.5t-63 -46.5t-66 -23.5t-61 -5.5q-49 0 -91.5 15.5 t-66.5 34.5t-52.5 34.5t-53.5 15.5q-28 0 -57 -20q-27 -20 -27 -60h-205z" />
<glyph unicode="&#xd2;" horiz-adv-x="1573" d="M43 717q0 157 57 295t155.5 236t236.5 155t294 57q157 0 295 -57t236.5 -155t155.5 -236t57 -295q0 -156 -57 -294t-155.5 -237t-236.5 -156t-295 -57q-156 0 -294 57t-236.5 156t-155.5 237t-57 294zM365 717q0 -201 114 -330t307 -129q192 0 307 129.5t115 329.5 t-115 329.5t-307 129.5q-193 0 -307 -129.5t-114 -329.5zM498 1679l164 262l377 -286l-113 -174z" />
<glyph unicode="&#xd3;" horiz-adv-x="1573" d="M43 717q0 157 57 295t155.5 236t236.5 155t294 57q157 0 295 -57t236.5 -155t155.5 -236t57 -295q0 -156 -57 -294t-155.5 -237t-236.5 -156t-295 -57q-156 0 -294 57t-236.5 156t-155.5 237t-57 294zM365 717q0 -201 114 -330t307 -129q192 0 307 129.5t115 329.5 t-115 329.5t-307 129.5q-193 0 -307 -129.5t-114 -329.5zM537 1655l377 286l164 -262l-428 -198z" />
<glyph unicode="&#xd4;" horiz-adv-x="1573" d="M43 717q0 157 57 295t155.5 236t236.5 155t294 57q157 0 295 -57t236.5 -155t155.5 -236t57 -295q0 -156 -57 -294t-155.5 -237t-236.5 -156t-295 -57q-156 0 -294 57t-236.5 156t-155.5 237t-57 294zM365 717q0 -201 114 -330t307 -129q192 0 307 129.5t115 329.5 t-115 329.5t-307 129.5q-193 0 -307 -129.5t-114 -329.5zM385 1610l401 337l396 -333l-144 -150l-252 176l-256 -176z" />
<glyph unicode="&#xd5;" horiz-adv-x="1573" d="M43 717q0 157 57 295t155.5 236t236.5 155t294 57q157 0 295 -57t236.5 -155t155.5 -236t57 -295q0 -156 -57 -294t-155.5 -237t-236.5 -156t-295 -57q-156 0 -294 57t-236.5 156t-155.5 237t-57 294zM365 717q0 -201 114 -330t307 -129q192 0 307 129.5t115 329.5 t-115 329.5t-307 129.5q-193 0 -307 -129.5t-114 -329.5zM376 1564q0 46 16 90.5t47.5 84t85.5 64.5t122 26q52 0 99 -15.5t74.5 -34t55.5 -34t47 -15.5q26 0 40.5 25t14.5 65h205q0 -68 -18.5 -120t-45.5 -80.5t-63 -46.5t-66 -23.5t-61 -5.5q-49 0 -91.5 15.5t-66.5 34.5 t-52.5 34.5t-53.5 15.5q-28 0 -57 -20q-27 -20 -27 -60h-205z" />
<glyph unicode="&#xd6;" horiz-adv-x="1573" d="M43 717q0 157 57 295t155.5 236t236.5 155t294 57q157 0 295 -57t236.5 -155t155.5 -236t57 -295q0 -156 -57 -294t-155.5 -237t-236.5 -156t-295 -57q-156 0 -294 57t-236.5 156t-155.5 237t-57 294zM365 717q0 -201 114 -330t307 -129q192 0 307 129.5t115 329.5 t-115 329.5t-307 129.5q-193 0 -307 -129.5t-114 -329.5zM443 1689q0 65 37 109q38 45 114 45q73 0 112.5 -43.5t39.5 -110.5q0 -60 -38 -106q-38 -45 -114 -45t-114 45q-37 44 -37 106zM832 1689q0 65 37 109q37 45 114 45q73 0 112.5 -43.5t39.5 -110.5q0 -60 -38 -106 q-37 -45 -114 -45t-114 45q-37 44 -37 106z" />
<glyph unicode="&#xd7;" horiz-adv-x="961" d="M37 291l239 239l-239 242l203 203l239 -242l242 242l203 -203l-242 -242l242 -239l-203 -201l-242 240l-239 -240z" />
<glyph unicode="&#xd8;" horiz-adv-x="1573" d="M43 717q0 157 57 295t155.5 236t236.5 155t294 57q241 0 435 -133l106 107l172 -172l-104 -107q135 -187 135 -438q0 -156 -57 -294t-155.5 -237t-236.5 -156t-295 -57q-236 0 -432 129l-100 -102l-172 170l100 102q-139 198 -139 445zM365 717q0 -124 43 -217l604 614 q-100 62 -226 62q-193 0 -307 -129.5t-114 -329.5zM565 315q95 -57 221 -57q192 0 307 129.5t115 329.5q0 107 -41 209z" />
<glyph unicode="&#xd9;" horiz-adv-x="1366" d="M76 571v863h307v-863q0 -65 15.5 -117.5t49 -94.5t92 -65.5t138.5 -23.5q166 0 235 80q70 79 70 221v863h307v-863q0 -289 -156.5 -443.5t-455.5 -154.5q-294 0 -448 139t-154 459zM412 1679l164 262l377 -286l-113 -174z" />
<glyph unicode="&#xda;" horiz-adv-x="1366" d="M76 571v863h307v-863q0 -65 15.5 -117.5t49 -94.5t92 -65.5t138.5 -23.5q166 0 235 80q70 79 70 221v863h307v-863q0 -289 -156.5 -443.5t-455.5 -154.5q-294 0 -448 139t-154 459zM412 1655l377 286l164 -262l-428 -198z" />
<glyph unicode="&#xdb;" horiz-adv-x="1366" d="M76 571v863h307v-863q0 -65 15.5 -117.5t49 -94.5t92 -65.5t138.5 -23.5q166 0 235 80q70 79 70 221v863h307v-863q0 -289 -156.5 -443.5t-455.5 -154.5q-294 0 -448 139t-154 459zM285 1610l401 337l396 -333l-144 -150l-252 176l-256 -176z" />
<glyph unicode="&#xdc;" horiz-adv-x="1366" d="M76 571v863h307v-863q0 -65 15.5 -117.5t49 -94.5t92 -65.5t138.5 -23.5q166 0 235 80q70 79 70 221v863h307v-863q0 -289 -156.5 -443.5t-455.5 -154.5q-294 0 -448 139t-154 459zM336 1689q0 65 37 109q37 45 114 45q73 0 112.5 -43.5t39.5 -110.5q0 -60 -38 -106 q-37 -45 -114 -45t-114 45q-37 44 -37 106zM725 1689q0 65 37 109q38 45 114 45q73 0 112.5 -43.5t39.5 -110.5q0 -60 -38 -106q-38 -45 -114 -45t-114 45q-37 44 -37 106z" />
<glyph unicode="&#xdd;" horiz-adv-x="1290" d="M4 1434h352l285 -549l293 549h352l-493 -859v-575h-308v582zM375 1655l377 286l164 -262l-428 -198z" />
<glyph unicode="&#xde;" horiz-adv-x="1143" d="M86 0v1434h307v-177h150q276 0 427.5 -149t151.5 -391t-151.5 -391.5t-427.5 -149.5h-150v-176h-307zM393 455h150q135 0 199 72q65 74 65 190t-65 189q-64 73 -199 73h-150v-524z" />
<glyph unicode="&#xdf;" horiz-adv-x="1053" d="M78 0v1069q0 130 50 209q49 77 117 118q66 40 140 52q72 12 115 12q53 0 106 -10.5t108.5 -37t98 -66.5t69.5 -104.5t27 -145.5q0 -186 -137 -287q123 -40 195 -143q73 -100 73 -248q0 -185 -110 -307.5t-297 -122.5q-87 0 -144 28v269q42 -13 80 -13q74 0 119 49t45 128 q0 84 -57.5 142t-186.5 58v260q40 12 66.5 34.5t36.5 49t13 42.5t3 30q0 50 -29 83.5t-81 33.5q-43 0 -78 -29t-35 -96v-1057h-307z" />
<glyph unicode="&#xe0;" horiz-adv-x="1272" d="M33 528q0 237 144 389t382 152q217 0 315 -135v123h316v-1057h-316v115q-100 -127 -309 -127q-246 0 -389 150.5t-143 389.5zM340 1316l164 262l377 -286l-113 -174zM348 530q0 -117 74 -191q73 -73 190 -73q125 0 193.5 79t68.5 183q0 103 -68.5 183t-195.5 80 q-118 0 -190 -74q-72 -73 -72 -187z" />
<glyph unicode="&#xe1;" horiz-adv-x="1272" d="M33 528q0 237 144 389t382 152q217 0 315 -135v123h316v-1057h-316v115q-100 -127 -309 -127q-246 0 -389 150.5t-143 389.5zM340 1292l377 286l164 -262l-428 -198zM348 530q0 -117 74 -191q73 -73 190 -73q125 0 193.5 79t68.5 183q0 103 -68.5 183t-195.5 80 q-118 0 -190 -74q-72 -73 -72 -187z" />
<glyph unicode="&#xe2;" horiz-adv-x="1272" d="M33 528q0 237 144 389t382 152q217 0 315 -135v123h316v-1057h-316v115q-100 -127 -309 -127q-246 0 -389 150.5t-143 389.5zM213 1247l401 337l396 -333l-144 -150l-252 176l-256 -176zM348 530q0 -117 74 -191q73 -73 190 -73q125 0 193.5 79t68.5 183q0 103 -68.5 183 t-195.5 80q-118 0 -190 -74q-72 -73 -72 -187z" />
<glyph unicode="&#xe3;" horiz-adv-x="1272" d="M33 528q0 237 144 389t382 152q217 0 315 -135v123h316v-1057h-316v115q-100 -127 -309 -127q-246 0 -389 150.5t-143 389.5zM206 1201q0 46 16 90.5t47.5 84t85.5 64.5t122 26q66 0 122 -25t94 -49.5t60 -24.5q26 0 40.5 25t14.5 65h205q0 -68 -18.5 -120t-45.5 -80.5 t-63 -46.5t-66 -23.5t-61 -5.5q-49 0 -91.5 15.5t-66.5 34.5t-52.5 34.5t-53.5 15.5q-28 0 -57 -20q-27 -19 -27 -60h-205zM348 530q0 -117 74 -191q73 -73 190 -73q125 0 193.5 79t68.5 183q0 103 -68.5 183t-195.5 80q-118 0 -190 -74q-72 -73 -72 -187z" />
<glyph unicode="&#xe4;" horiz-adv-x="1272" d="M33 528q0 237 144 389t382 152q217 0 315 -135v123h316v-1057h-316v115q-100 -127 -309 -127q-246 0 -389 150.5t-143 389.5zM265 1326q0 65 37 109q38 45 114 45q73 0 112.5 -43.5t39.5 -110.5q0 -60 -38 -106q-38 -45 -114 -45t-114 45q-37 44 -37 106zM348 530 q0 -117 74 -191q73 -73 190 -73q125 0 193.5 79t68.5 183q0 103 -68.5 183t-195.5 80q-118 0 -190 -74q-72 -73 -72 -187zM654 1326q0 65 37 109q37 45 114 45q73 0 112.5 -43.5t39.5 -110.5q0 -60 -38 -106q-37 -45 -114 -45t-114 45q-37 44 -37 106z" />
<glyph unicode="&#xe5;" horiz-adv-x="1272" d="M33 528q0 237 144 389t382 152q217 0 315 -135v123h316v-1057h-316v115q-100 -127 -309 -127q-246 0 -389 150.5t-143 389.5zM348 530q0 -117 74 -191q73 -73 190 -73q125 0 193.5 79t68.5 183q0 103 -68.5 183t-195.5 80q-118 0 -190 -74q-72 -73 -72 -187zM379 1322 q0 98 58 165q59 69 173 69t173 -69q58 -67 58 -165q0 -99 -60.5 -165t-170.5 -66t-170.5 66t-60.5 165zM522 1322q0 -37 23 -62.5t65 -25.5t65 25.5t23 62.5q0 39 -22.5 64.5t-65.5 25.5t-65.5 -25.5t-22.5 -64.5z" />
<glyph unicode="&#xe6;" horiz-adv-x="2220" d="M33 528q0 238 143 389.5t385 151.5q215 0 313 -135v123h316v-234q65 117 187.5 181.5t281.5 64.5q156 0 275.5 -61t190 -186.5t70.5 -299.5v-84h-755q14 -78 62 -125q49 -47 155 -47q52 0 115 20q63 21 110 89l254 -172q-159 -215 -477 -215q-161 0 -282 63t-187 180 v-231h-316v115q-100 -127 -309 -127q-246 0 -389 150.5t-143 389.5zM348 528q0 -114 74 -188t190 -74q125 0 193.5 79t68.5 183v9q0 99 -69.5 176.5t-192.5 77.5q-124 0 -194 -73t-70 -190zM1448 666h418q-19 61 -64 101q-44 40 -143 40q-171 0 -211 -141z" />
<glyph unicode="&#xe7;" horiz-adv-x="1151" d="M33 528q0 118 37.5 216.5t109.5 171t184 113t254 40.5q202 0 330.5 -80t177.5 -231l-270 -109q-29 60 -83 101q-55 41 -159 41q-139 0 -203 -73q-63 -74 -63 -190t63 -189q64 -73 203 -73q104 0 159 41q54 41 83 101l270 -109q-49 -147 -163 -223t-306 -88l-57 -94 q99 0 181.5 -71.5t82.5 -189.5q0 -117 -82.5 -190.5t-191.5 -73.5q-60 0 -129 29q-65 28 -103 92l179 117q31 -33 63 -33q29 0 45.5 18t16.5 48q0 26 -17 49q-16 22 -70 22q-65 0 -118 -45l-168 94l151 246q-201 45 -305 185q-102 141 -102 337z" />
<glyph unicode="&#xe8;" horiz-adv-x="1135" d="M33 528q0 249 147.5 395t390.5 146q240 0 389.5 -143t149.5 -404v-84h-756q15 -79 63 -125q49 -47 154 -47q53 0 116 20q63 21 110 89l254 -172q-164 -215 -478 -215q-245 0 -392.5 145t-147.5 395zM297 1316l164 262l377 -286l-113 -174zM362 666h418q-18 60 -63 101 q-44 40 -144 40q-169 0 -211 -141z" />
<glyph unicode="&#xe9;" horiz-adv-x="1135" d="M33 528q0 249 147.5 395t390.5 146q240 0 389.5 -143t149.5 -404v-84h-756q15 -79 63 -125q49 -47 154 -47q53 0 116 20q63 21 110 89l254 -172q-164 -215 -478 -215q-245 0 -392.5 145t-147.5 395zM297 1292l377 286l164 -262l-428 -198zM362 666h418q-18 60 -63 101 q-44 40 -144 40q-169 0 -211 -141z" />
<glyph unicode="&#xea;" horiz-adv-x="1135" d="M33 528q0 249 147.5 395t390.5 146q240 0 389.5 -143t149.5 -404v-84h-756q15 -79 63 -125q49 -47 154 -47q53 0 116 20q63 21 110 89l254 -172q-164 -215 -478 -215q-245 0 -392.5 145t-147.5 395zM168 1247l401 337l396 -333l-144 -150l-252 176l-256 -176zM362 666 h418q-18 60 -63 101q-44 40 -144 40q-169 0 -211 -141z" />
<glyph unicode="&#xeb;" horiz-adv-x="1135" d="M33 528q0 249 147.5 395t390.5 146q240 0 389.5 -143t149.5 -404v-84h-756q15 -79 63 -125q49 -47 154 -47q53 0 116 20q63 21 110 89l254 -172q-164 -215 -478 -215q-245 0 -392.5 145t-147.5 395zM222 1326q0 65 37 109q37 45 114 45q73 0 112.5 -43.5t39.5 -110.5 q0 -60 -38 -106q-37 -45 -114 -45t-114 45q-37 44 -37 106zM362 666h418q-18 60 -63 101q-44 40 -144 40q-169 0 -211 -141zM611 1326q0 65 37 109q38 45 114 45q73 0 112.5 -43.5t39.5 -110.5q0 -60 -38 -106q-38 -45 -114 -45t-114 45q-37 44 -37 106z" />
<glyph unicode="&#xec;" horiz-adv-x="463" d="M-38 1316l164 262l377 -286l-113 -174zM78 0v967h307v-967h-307z" />
<glyph unicode="&#xed;" horiz-adv-x="463" d="M-38 1292l377 286l164 -262l-428 -198zM78 0v967h307v-967h-307z" />
<glyph unicode="&#xee;" horiz-adv-x="463" d="M-165 1247l401 337l396 -333l-144 -150l-252 176l-256 -176zM78 0v967h307v-967h-307z" />
<glyph unicode="&#xef;" horiz-adv-x="463" d="M-113 1326q0 63 38 109q37 45 113 45q73 0 112.5 -43.5t39.5 -110.5q0 -60 -38 -106q-38 -45 -114 -45t-113 45q-38 46 -38 106zM78 0v967h307v-967h-307zM276 1326q0 65 37 109q37 45 114 45q73 0 112.5 -43.5t39.5 -110.5q0 -60 -38 -106q-37 -45 -114 -45t-114 45 q-37 44 -37 106z" />
<glyph unicode="&#xf0;" horiz-adv-x="1233" d="M33 526q0 114 35.5 211t105 172t181.5 117.5t255 42.5h25q-18 22 -61 63l-64 64l-80 -94l-160 133l82 96l-100 80l197 229l94 -79l71 86l158 -134l-78 -92q498 -466 498 -891q0 -244 -151.5 -393t-428.5 -149q-139 0 -250 41t-182.5 113t-109 170t-37.5 214zM348 528 q0 -116 64 -189t200 -73t200 73q65 74 65 189q0 116 -65 190q-64 73 -200 73t-200 -73t-64 -190z" />
<glyph unicode="&#xf1;" horiz-adv-x="1196" d="M82 0v1057h307v-125q100 137 309 137q211 0 326 -123.5t115 -331.5v-614h-308v543q0 140 -49 193q-49 55 -149 55q-109 0 -176.5 -58.5t-67.5 -193.5v-539h-307zM194 1201q0 46 16 90.5t47.5 84t85.5 64.5t122 26q66 0 122 -25t94 -49.5t60 -24.5q26 0 40.5 25t14.5 65 h205q0 -68 -18.5 -120t-45.5 -80.5t-63 -46.5t-66 -23.5t-61 -5.5q-49 0 -91.5 15.5t-66.5 34.5t-52.5 34.5t-53.5 15.5q-28 0 -57 -20q-27 -19 -27 -60h-205z" />
<glyph unicode="&#xf2;" horiz-adv-x="1225" d="M33 528q0 242 151.5 391.5t427.5 149.5q140 0 250.5 -40.5t182.5 -113t109.5 -171t37.5 -216.5q0 -241 -151.5 -390.5t-428.5 -149.5q-276 0 -427.5 149.5t-151.5 390.5zM342 1316l164 262l377 -286l-113 -174zM348 528q0 -116 64 -189t200 -73t200 73q65 74 65 189 q0 116 -65 190q-64 73 -200 73t-200 -73t-64 -190z" />
<glyph unicode="&#xf3;" horiz-adv-x="1225" d="M33 528q0 242 151.5 391.5t427.5 149.5q140 0 250.5 -40.5t182.5 -113t109.5 -171t37.5 -216.5q0 -241 -151.5 -390.5t-428.5 -149.5q-276 0 -427.5 149.5t-151.5 390.5zM342 1292l377 286l164 -262l-428 -198zM348 528q0 -116 64 -189t200 -73t200 73q65 74 65 189 q0 116 -65 190q-64 73 -200 73t-200 -73t-64 -190z" />
<glyph unicode="&#xf4;" horiz-adv-x="1225" d="M33 528q0 242 151.5 391.5t427.5 149.5q140 0 250.5 -40.5t182.5 -113t109.5 -171t37.5 -216.5q0 -241 -151.5 -390.5t-428.5 -149.5q-276 0 -427.5 149.5t-151.5 390.5zM213 1247l401 337l396 -333l-144 -150l-252 176l-256 -176zM348 528q0 -116 64 -189t200 -73 t200 73q65 74 65 189q0 116 -65 190q-64 73 -200 73t-200 -73t-64 -190z" />
<glyph unicode="&#xf5;" horiz-adv-x="1225" d="M33 528q0 242 151.5 391.5t427.5 149.5q140 0 250.5 -40.5t182.5 -113t109.5 -171t37.5 -216.5q0 -241 -151.5 -390.5t-428.5 -149.5q-276 0 -427.5 149.5t-151.5 390.5zM209 1201q0 46 16 90.5t47.5 84t85.5 64.5t122 26q66 0 122 -25t94 -49.5t60 -24.5q26 0 40.5 25 t14.5 65h205q0 -68 -18.5 -120t-45.5 -80.5t-63 -46.5t-66 -23.5t-61 -5.5q-49 0 -91.5 15.5t-66.5 34.5t-52.5 34.5t-53.5 15.5q-28 0 -57 -20q-27 -19 -27 -60h-205zM348 528q0 -116 64 -189t200 -73t200 73q65 74 65 189q0 116 -65 190q-64 73 -200 73t-200 -73t-64 -190 z" />
<glyph unicode="&#xf6;" horiz-adv-x="1225" d="M33 528q0 242 151.5 391.5t427.5 149.5q140 0 250.5 -40.5t182.5 -113t109.5 -171t37.5 -216.5q0 -241 -151.5 -390.5t-428.5 -149.5q-276 0 -427.5 149.5t-151.5 390.5zM267 1326q0 65 37 109q38 45 114 45q73 0 112.5 -43.5t39.5 -110.5q0 -60 -38 -106 q-38 -45 -114 -45t-114 45q-37 44 -37 106zM348 528q0 -116 64 -189t200 -73t200 73q65 74 65 189q0 116 -65 190q-64 73 -200 73t-200 -73t-64 -190zM656 1326q0 65 37 109q37 45 114 45q73 0 112.5 -43.5t39.5 -110.5q0 -60 -38 -106q-37 -45 -114 -45t-114 45 q-37 44 -37 106z" />
<glyph unicode="&#xf7;" horiz-adv-x="1346" d="M45 571v119h1258v-119h-1258zM539 246q0 46 41 92q38 39 92 39q57 0 96 -39q39 -45 39 -92q0 -56 -39 -96q-40 -39 -96 -39q-50 0 -92 39q-41 44 -41 96zM539 1010q0 59 41 94q36 39 92 39t94 -39q39 -39 39 -94q0 -54 -39 -92q-38 -39 -94 -39t-92 39q-41 35 -41 92z " />
<glyph unicode="&#xf8;" horiz-adv-x="1225" d="M33 528q0 242 151.5 391.5t427.5 149.5q133 0 244 -39l21 27h305l-123 -156q133 -147 133 -373q0 -117 -37.5 -215.5t-109.5 -171t-183 -113t-252 -40.5q-137 0 -239 37l-21 -25h-307l123 156q-133 144 -133 372zM348 526q0 -69 21 -114l295 374q-38 5 -54 5 q-134 0 -199 -74q-63 -73 -63 -191zM561 268q16 -2 23 -2h12q154 0 217 73q64 73 64 187q0 70 -21 117z" />
<glyph unicode="&#xf9;" horiz-adv-x="1196" d="M57 442v615h308v-543q0 -139 49 -194q50 -54 149 -54q52 0 93.5 13t76.5 42t54.5 83t19.5 128v525h307v-1057h-307v125q-95 -137 -307 -137q-213 0 -328 123t-115 331zM328 1316l164 262l377 -286l-113 -174z" />
<glyph unicode="&#xfa;" horiz-adv-x="1196" d="M57 442v615h308v-543q0 -139 49 -194q50 -54 149 -54q52 0 93.5 13t76.5 42t54.5 83t19.5 128v525h307v-1057h-307v125q-95 -137 -307 -137q-213 0 -328 123t-115 331zM328 1292l377 286l164 -262l-428 -198z" />
<glyph unicode="&#xfb;" horiz-adv-x="1196" d="M57 442v615h308v-543q0 -139 49 -194q50 -54 149 -54q52 0 93.5 13t76.5 42t54.5 83t19.5 128v525h307v-1057h-307v125q-95 -137 -307 -137q-213 0 -328 123t-115 331zM199 1247l401 337l396 -333l-144 -150l-252 176l-256 -176z" />
<glyph unicode="&#xfc;" horiz-adv-x="1196" d="M57 442v615h308v-543q0 -139 49 -194q50 -54 149 -54q52 0 93.5 13t76.5 42t54.5 83t19.5 128v525h307v-1057h-307v125q-95 -137 -307 -137q-213 0 -328 123t-115 331zM252 1326q0 65 37 109q37 45 114 45q73 0 112.5 -43.5t39.5 -110.5q0 -60 -38 -106q-37 -45 -114 -45 t-114 45q-37 44 -37 106zM641 1326q0 65 37 109q38 45 114 45q73 0 112.5 -43.5t39.5 -110.5q0 -60 -38 -106q-38 -45 -114 -45t-114 45q-37 44 -37 106z" />
<glyph unicode="&#xfd;" horiz-adv-x="1073" d="M-12 1057h323l221 -516l226 516h323l-465 -1075q-67 -154 -155 -222t-268 -108l-60 297q75 23 130 53q51 28 77 100l27 76zM266 1292l377 286l164 -262l-428 -198z" />
<glyph unicode="&#xfe;" horiz-adv-x="1276" d="M86 -377v1811h315v-492q88 127 310 127q246 0 389 -151t143 -390q0 -237 -143.5 -388.5t-384.5 -151.5q-215 0 -314 135v-500h-315zM401 518q4 -100 72.5 -176t190.5 -76t193 74t71 186q0 118 -74 192q-73 73 -190 73q-123 0 -193 -77t-70 -177v-19z" />
<glyph unicode="&#xff;" horiz-adv-x="1073" d="M-12 1057h323l221 -516l226 516h323l-465 -1075q-67 -154 -155 -222t-268 -108l-60 297q75 23 130 53q51 28 77 100l27 76zM191 1326q0 65 37 109q38 45 114 45q73 0 112.5 -43.5t39.5 -110.5q0 -60 -38 -106q-38 -45 -114 -45t-114 45q-37 44 -37 106zM580 1326 q0 65 37 109q37 45 114 45q73 0 112.5 -43.5t39.5 -110.5q0 -60 -38 -106q-37 -45 -114 -45t-114 45q-37 44 -37 106z" />
<glyph unicode="&#x152;" horiz-adv-x="1976" d="M43 717q1 330 204.5 522.5t538.5 194.5h1098v-279h-610v-293h559v-278h-559v-305h641v-279h-1129q-164 0 -302 50t-235.5 142t-151.5 226.5t-54 298.5zM365 717q0 -199 113 -318.5t308 -119.5h181v876h-181q-194 0 -307.5 -120.5t-113.5 -317.5z" />
<glyph unicode="&#x153;" horiz-adv-x="2220" d="M33 528q0 242 151.5 391.5t427.5 149.5q216 0 350 -88q136 -88 191 -236q55 154 186.5 239t317.5 85q240 0 389 -143t149 -404v-84h-755q14 -78 62 -125q49 -47 155 -47q52 0 115 20q63 21 110 89l254 -172q-47 -63 -108 -107.5t-126.5 -66.5t-124.5 -31.5t-120 -9.5 q-186 0 -317.5 84t-186.5 237q-56 -151 -193.5 -236t-345.5 -85q-278 0 -429.5 149.5t-151.5 390.5zM348 528q0 -116 64 -189t200 -73t200 73q65 74 65 189q0 116 -65 190q-64 73 -200 73t-200 -73t-64 -190zM1448 666h418q-19 61 -64 101q-44 40 -143 40q-171 0 -211 -141z " />
<glyph unicode="&#x178;" horiz-adv-x="1290" d="M4 1434h352l285 -549l293 549h352l-493 -859v-575h-308v582zM299 1689q0 65 37 109q38 45 114 45q73 0 112.5 -43.5t39.5 -110.5q0 -60 -38 -106q-38 -45 -114 -45t-114 45q-37 44 -37 106zM688 1689q0 65 37 109q37 45 114 45q73 0 112.5 -43.5t39.5 -110.5 q0 -60 -38 -106q-37 -45 -114 -45t-114 45q-37 44 -37 106z" />
<glyph unicode="&#x2c6;" horiz-adv-x="893" d="M45 1389l401 337l396 -333l-144 -150l-252 176l-256 -176z" />
<glyph unicode="&#x2dc;" horiz-adv-x="840" d="M16 1343q0 46 16 90.5t47.5 84t85.5 64.5t122 26q66 0 122 -25t94 -49.5t60 -24.5q26 0 40.5 25t14.5 65h205q0 -68 -18.5 -120t-45.5 -80.5t-63 -46.5t-66 -23.5t-61 -5.5q-49 0 -91.5 15.5t-66.5 34.5t-52.5 34.5t-53.5 15.5q-28 0 -57 -20q-27 -19 -27 -60h-205z" />
<glyph unicode="&#x2000;" horiz-adv-x="996" />
<glyph unicode="&#x2001;" horiz-adv-x="1993" />
<glyph unicode="&#x2002;" horiz-adv-x="996" />
<glyph unicode="&#x2003;" horiz-adv-x="1993" />
<glyph unicode="&#x2004;" horiz-adv-x="664" />
<glyph unicode="&#x2005;" horiz-adv-x="498" />
<glyph unicode="&#x2006;" horiz-adv-x="332" />
<glyph unicode="&#x2007;" horiz-adv-x="332" />
<glyph unicode="&#x2008;" horiz-adv-x="249" />
<glyph unicode="&#x2009;" horiz-adv-x="398" />
<glyph unicode="&#x200a;" horiz-adv-x="110" />
<glyph unicode="&#x2010;" horiz-adv-x="905" d="M70 389v279h766v-279h-766z" />
<glyph unicode="&#x2011;" horiz-adv-x="905" d="M70 389v279h766v-279h-766z" />
<glyph unicode="&#x2012;" horiz-adv-x="905" d="M70 389v279h766v-279h-766z" />
<glyph unicode="&#x2013;" horiz-adv-x="1157" d="M70 389v279h1017v-279h-1017z" />
<glyph unicode="&#x2014;" horiz-adv-x="1632" d="M70 389v279h1493v-279h-1493z" />
<glyph unicode="&#x2018;" horiz-adv-x="483" d="M23 1419q0 158 79 270q80 113 250 154l56 -112q-90 -54 -131 -109t-41 -133q186 -11 186 -172q0 -82 -46.5 -132t-135.5 -50q-112 0 -164.5 77t-52.5 207z" />
<glyph unicode="&#x2019;" horiz-adv-x="483" d="M61 1661q0 81 47 131.5t136 50.5q110 0 163.5 -78t53.5 -206q0 -158 -80 -271q-79 -112 -250 -153l-55 112q90 53 131 108.5t41 133.5q-187 10 -187 172z" />
<glyph unicode="&#x201a;" horiz-adv-x="483" d="M61 145q0 82 47 132.5t136 50.5q110 0 163.5 -78t53.5 -207q0 -157 -80 -270t-250 -154l-55 113q89 53 130.5 108.5t41.5 132.5q-187 10 -187 172z" />
<glyph unicode="&#x201c;" horiz-adv-x="958" d="M23 1419q0 158 79 270q80 113 250 154l56 -112q-90 -54 -131 -109t-41 -133q186 -11 186 -172q0 -82 -46.5 -132t-135.5 -50q-112 0 -164.5 77t-52.5 207zM498 1419q0 158 79 270q80 113 250 154l56 -112q-90 -54 -131 -109t-41 -133q186 -11 186 -172q0 -82 -46.5 -132 t-135.5 -50q-112 0 -164.5 77t-52.5 207z" />
<glyph unicode="&#x201d;" horiz-adv-x="958" d="M61 1661q0 81 47 131.5t136 50.5q110 0 163.5 -78t53.5 -206q0 -158 -80 -271q-79 -112 -250 -153l-55 112q90 53 131 108.5t41 133.5q-187 10 -187 172zM537 1661q0 82 46.5 132t135.5 50q110 0 163.5 -78t53.5 -206q0 -158 -80 -271q-79 -112 -250 -153l-55 112 q90 53 131 108.5t41 133.5q-186 11 -186 172z" />
<glyph unicode="&#x201e;" horiz-adv-x="958" d="M61 145q0 82 47 132.5t136 50.5q110 0 163.5 -78t53.5 -207q0 -157 -80 -270t-250 -154l-55 113q89 53 130.5 108.5t41.5 132.5q-187 10 -187 172zM537 145q0 82 46.5 132.5t135.5 50.5q110 0 163.5 -78t53.5 -207q0 -157 -80 -270t-250 -154l-55 113q89 53 130.5 108.5 t41.5 132.5q-186 10 -186 172z" />
<glyph unicode="&#x2022;" horiz-adv-x="786" d="M49 528q0 146 99.5 246t246.5 100q144 0 243 -100t99 -246t-99 -246t-243 -100q-147 0 -246.5 100t-99.5 246z" />
<glyph unicode="&#x2026;" horiz-adv-x="1466" d="M102 150q0 71 45 124q47 54 132 54q86 0 131 -54q45 -52 45 -124t-45 -125q-45 -52 -131 -52t-132 52q-45 52 -45 125zM557 150q0 71 45 124q45 54 131 54t131 -54q45 -52 45 -124t-45 -125q-45 -52 -131 -52t-131 52q-45 53 -45 125zM1012 150q0 71 45 124q45 54 131 54 t131 -54q45 -52 45 -124t-45 -125q-45 -52 -131 -52t-131 52t-45 125z" />
<glyph unicode="&#x202f;" horiz-adv-x="398" />
<glyph unicode="&#x2039;" horiz-adv-x="674" d="M37 526l293 303h307l-295 -303l293 -301h-307z" />
<glyph unicode="&#x203a;" horiz-adv-x="674" d="M37 829h307l293 -303l-291 -301h-307l293 301z" />
<glyph unicode="&#x205f;" horiz-adv-x="498" />
<glyph unicode="&#x20ac;" horiz-adv-x="1425" d="M-6 442v224h112q-4 21 -4 51q0 28 4 53h-112v223h160q79 213 266 340t434 127q158 0 294 -52t232 -157l-227 -207q-111 121 -303 121q-234 0 -348 -172h487v-223h-561q-2 -18 -2 -27v-53q0 -8 2 -24h561v-224h-487q113 -174 348 -174q192 0 303 121l227 -207 q-97 -103 -233.5 -156t-292.5 -53q-249 0 -436.5 128t-265.5 341h-158z" />
<glyph unicode="&#x2122;" horiz-adv-x="1194" d="M25 1352v184h432v-184h-129v-439h-185v439h-118zM512 913l43 625l276 -285l267 285l51 -625h-184l-11 195l-123 -160l-120 160l-13 -195h-186z" />
<glyph unicode="&#x25fc;" horiz-adv-x="1055" d="M0 0v1055h1055v-1055h-1055z" />
</font>
</defs>
</svg>
