<?xml version="1.0" encoding="UTF-8"?>
<svg width="21px" height="20px" viewBox="0 0 21 20" version="1.1" xmlns="http://www.w3.org/2000/svg" xmlns:xlink="http://www.w3.org/1999/xlink">
    <!-- Generator: Sketch 55.2 (78181) - https://sketchapp.com -->
    <title>0020-pencil5</title>
    <desc>Created with Sketch.</desc>
    <g id="Card" stroke="none" stroke-width="1" fill="none" fill-rule="evenodd">
        <g id="Card-1" transform="translate(-321.000000, -374.000000)" fill-rule="nonzero">
            <g id="0020-pencil5" transform="translate(321.290527, 374.000000)">
                <path d="M19.103,0.896 C18.541,0.334 17.794,0.025 17,0.025 C16.206,0.025 15.458,0.334 14.897,0.896 L5.147,10.646 C5.095,10.698 5.056,10.76 5.031,10.829 L3.031,16.329 C2.965,16.512 3.01,16.716 3.147,16.853 C3.242,16.949 3.37,17 3.501,17 C3.558,17 3.616,16.99 3.672,16.97 L9.172,14.97 C9.241,14.945 9.303,14.905 9.355,14.854 L19.105,5.104 C19.667,4.542 19.976,3.795 19.976,3 C19.976,2.205 19.667,1.458 19.105,0.896 L19.103,0.896 Z M8.725,14.068 L4.336,15.664 L5.932,11.275 L14,3.207 L16.793,6 L8.725,14.068 Z M18.397,4.396 L17.5,5.292 L14.707,2.499 L15.604,1.603 C15.977,1.23 16.473,1.025 17,1.025 C17.527,1.025 18.023,1.23 18.397,1.603 C18.77,1.976 18.975,2.472 18.975,2.999 C18.975,3.526 18.77,4.022 18.397,4.395 L18.397,4.396 Z" id="Shape" fill="#000000"></path>
                <path d="M17.5,20 L1.5,20 C0.673,20 0,19.327 0,18.5 L0,2.5 C0,1.673 0.673,1 1.5,1 L11.5,1 C11.776,1 12,1.224 12,1.5 C12,1.776 11.776,2 11.5,2 L1.5,2 C1.224,2 1,2.224 1,2.5 L1,18.5 C1,18.776 1.224,19 1.5,19 L17.5,19 C17.776,19 18,18.776 18,18.5 L18,8.5 C18,8.224 18.224,8 18.5,8 C18.776,8 19,8.224 19,8.5 L19,18.5 C19,19.327 18.327,20 17.5,20 Z" id="Path" fill="#000000"></path>
            </g>
        </g>
    </g>
</svg>